<svg width="360" height="35" viewBox="0 0 360 35" fill="none" xmlns="http://www.w3.org/2000/svg">
<rect width="360" height="35" fill="#F9F9F9"/>
<path d="M82.2204 19.176C82.0977 19.64 81.8524 20.0133 81.4844 20.296C81.1217 20.584 80.7004 20.728 80.2204 20.728C79.799 20.728 79.4177 20.624 79.0764 20.416C78.735 20.2133 78.4657 19.9333 78.2684 19.576C78.0764 19.2133 77.9804 18.8133 77.9804 18.376C77.9804 17.9387 78.0764 17.5413 78.2684 17.184C78.4604 16.8213 78.7244 16.5387 79.0604 16.336C79.4017 16.128 79.7804 16.024 80.1964 16.024C80.6764 16.024 81.0977 16.1653 81.4604 16.448C81.8284 16.7307 82.079 17.1013 82.2124 17.56H81.8684C81.7457 17.192 81.535 16.896 81.2364 16.672C80.943 16.448 80.5964 16.336 80.1964 16.336C79.8337 16.336 79.5084 16.4267 79.2204 16.608C78.9377 16.784 78.7164 17.0267 78.5564 17.336C78.3964 17.6453 78.3164 17.992 78.3164 18.376C78.3164 18.76 78.3964 19.1067 78.5564 19.416C78.7164 19.7253 78.9377 19.968 79.2204 20.144C79.5084 20.3253 79.8337 20.416 80.1964 20.416C80.5964 20.416 80.9484 20.3013 81.2524 20.072C81.5564 19.8427 81.7644 19.544 81.8764 19.176H82.2204ZM85.4153 16.024C85.8366 16.024 86.2153 16.128 86.5513 16.336C86.8926 16.5387 87.1593 16.8213 87.3513 17.184C87.5433 17.5413 87.6393 17.9387 87.6393 18.376C87.6393 18.8133 87.5433 19.2133 87.3513 19.576C87.1593 19.9333 86.8926 20.2133 86.5513 20.416C86.2153 20.624 85.8366 20.728 85.4153 20.728C84.994 20.728 84.6126 20.624 84.2713 20.416C83.9353 20.2133 83.6713 19.9333 83.4793 19.576C83.2873 19.2133 83.1913 18.8133 83.1913 18.376C83.1913 17.9387 83.2873 17.5413 83.4793 17.184C83.6713 16.8213 83.9353 16.5387 84.2713 16.336C84.6126 16.128 84.994 16.024 85.4153 16.024ZM85.4153 16.336C85.0473 16.336 84.7193 16.4267 84.4313 16.608C84.1486 16.784 83.9273 17.0267 83.7673 17.336C83.6073 17.6453 83.5273 17.992 83.5273 18.376C83.5273 18.76 83.6073 19.1067 83.7673 19.416C83.9273 19.7253 84.1486 19.968 84.4313 20.144C84.7193 20.3253 85.0473 20.416 85.4153 20.416C85.7833 20.416 86.1086 20.3253 86.3913 20.144C86.6793 19.968 86.9033 19.7253 87.0633 19.416C87.2233 19.1067 87.3033 18.76 87.3033 18.376C87.3033 17.992 87.2233 17.6453 87.0633 17.336C86.9033 17.0267 86.6793 16.784 86.3913 16.608C86.1086 16.4267 85.7833 16.336 85.4153 16.336ZM88.8688 16.136H89.2048V17.208C89.2688 17.0267 89.3861 16.8453 89.5568 16.664C89.7328 16.4827 89.9568 16.3307 90.2288 16.208C90.5008 16.0853 90.8021 16.024 91.1328 16.024C91.5435 16.024 91.9141 16.128 92.2448 16.336C92.5755 16.5387 92.8341 16.8213 93.0208 17.184C93.2128 17.5413 93.3088 17.9387 93.3088 18.376C93.3088 18.8133 93.2128 19.2133 93.0208 19.576C92.8341 19.9333 92.5755 20.2133 92.2448 20.416C91.9141 20.624 91.5435 20.728 91.1328 20.728C90.8021 20.728 90.5008 20.6667 90.2288 20.544C89.9568 20.4213 89.7328 20.2693 89.5568 20.088C89.3861 19.9067 89.2688 19.7253 89.2048 19.544V22.552H88.8688V16.136ZM91.1088 20.416C91.4768 20.416 91.8021 20.3253 92.0848 20.144C92.3675 19.968 92.5861 19.7253 92.7408 19.416C92.8955 19.1067 92.9728 18.76 92.9728 18.376C92.9728 17.992 92.8955 17.6453 92.7408 17.336C92.5861 17.0267 92.3675 16.784 92.0848 16.608C91.8021 16.4267 91.4768 16.336 91.1088 16.336C90.7408 16.336 90.4101 16.4267 90.1168 16.608C89.8288 16.784 89.6021 17.0293 89.4368 17.344C89.2768 17.6533 89.1968 17.9973 89.1968 18.376C89.1968 18.7547 89.2768 19.1013 89.4368 19.416C89.6021 19.7253 89.8288 19.968 90.1168 20.144C90.4101 20.3253 90.7408 20.416 91.1088 20.416ZM98.2827 16.136L95.2907 22.552H94.9307L95.8667 20.552L93.8187 16.136H94.1867L96.0507 20.168L97.9227 16.136H98.2827ZM99.2829 16.136H99.6189V17.248C99.6722 17.0827 99.7815 16.9067 99.9469 16.72C100.112 16.528 100.331 16.3653 100.603 16.232C100.88 16.0933 101.192 16.024 101.539 16.024C101.8 16.024 102.006 16.0507 102.155 16.104V16.432C102 16.368 101.79 16.336 101.523 16.336C101.176 16.336 100.856 16.432 100.563 16.624C100.27 16.8107 100.038 17.056 99.8669 17.36C99.7015 17.6587 99.6189 17.9653 99.6189 18.28V20.616H99.2829V16.136ZM103.24 14.144C103.32 14.144 103.387 14.1707 103.44 14.224C103.493 14.2773 103.52 14.344 103.52 14.424C103.52 14.504 103.493 14.5707 103.44 14.624C103.387 14.6773 103.32 14.704 103.24 14.704C103.16 14.704 103.093 14.6773 103.04 14.624C102.987 14.5707 102.96 14.504 102.96 14.424C102.96 14.344 102.987 14.2773 103.04 14.224C103.093 14.1707 103.16 14.144 103.24 14.144ZM103.408 20.616H103.072V16.136H103.408V20.616ZM106.997 22.664C106.405 22.664 105.935 22.5173 105.589 22.224C105.247 21.936 105.031 21.5627 104.941 21.104H105.293C105.357 21.4613 105.53 21.7573 105.813 21.992C106.101 22.232 106.495 22.352 106.997 22.352C107.519 22.352 107.941 22.1867 108.261 21.856C108.581 21.5307 108.741 21.0773 108.741 20.496V19.544C108.677 19.7253 108.557 19.9067 108.381 20.088C108.21 20.2693 107.989 20.4213 107.717 20.544C107.445 20.6667 107.143 20.728 106.813 20.728C106.402 20.728 106.031 20.624 105.701 20.416C105.37 20.2133 105.109 19.9333 104.917 19.576C104.73 19.2133 104.637 18.8133 104.637 18.376C104.637 17.9387 104.73 17.5413 104.917 17.184C105.109 16.8213 105.37 16.5387 105.701 16.336C106.031 16.128 106.402 16.024 106.813 16.024C107.143 16.024 107.445 16.0853 107.717 16.208C107.989 16.3307 108.21 16.4827 108.381 16.664C108.557 16.8453 108.677 17.0267 108.741 17.208V16.136H109.077V20.496C109.077 20.928 108.991 21.3067 108.821 21.632C108.65 21.9627 108.407 22.216 108.093 22.392C107.778 22.5733 107.413 22.664 106.997 22.664ZM106.837 20.416C107.205 20.416 107.533 20.3253 107.821 20.144C108.114 19.968 108.341 19.7253 108.501 19.416C108.666 19.1013 108.749 18.7547 108.749 18.376C108.749 17.9973 108.666 17.6533 108.501 17.344C108.341 17.0293 108.114 16.784 107.821 16.608C107.533 16.4267 107.205 16.336 106.837 16.336C106.469 16.336 106.143 16.4267 105.861 16.608C105.578 16.784 105.359 17.0267 105.205 17.336C105.05 17.6453 104.973 17.992 104.973 18.376C104.973 18.76 105.05 19.1067 105.205 19.416C105.359 19.7253 105.578 19.968 105.861 20.144C106.143 20.3253 106.469 20.416 106.837 20.416ZM110.549 14.104H110.885V17.248C110.933 17.0827 111.037 16.9067 111.197 16.72C111.357 16.528 111.567 16.3653 111.829 16.232C112.095 16.0933 112.399 16.024 112.741 16.024C113.082 16.024 113.386 16.104 113.653 16.264C113.925 16.424 114.135 16.6533 114.285 16.952C114.434 17.2453 114.509 17.584 114.509 17.968V20.616H114.173V18.024C114.173 17.4853 114.039 17.0693 113.773 16.776C113.506 16.4827 113.138 16.336 112.669 16.336C112.349 16.336 112.05 16.432 111.773 16.624C111.501 16.8107 111.285 17.056 111.125 17.36C110.965 17.6587 110.885 17.9653 110.885 18.28V20.616H110.549V14.104ZM117.807 16.448H116.719V20.616H116.383V16.448H115.295V16.136H116.383V14.744H116.719V16.136H117.807V16.448ZM119.919 20.936C119.449 20.4293 119.084 19.8853 118.823 19.304C118.567 18.7227 118.439 18.0907 118.439 17.408C118.439 16.7253 118.567 16.0933 118.823 15.512C119.084 14.9307 119.449 14.3867 119.919 13.88H120.351C119.86 14.3707 119.476 14.9147 119.199 15.512C118.921 16.104 118.783 16.736 118.783 17.408C118.783 18.08 118.921 18.7147 119.199 19.312C119.476 19.904 119.86 20.4453 120.351 20.936H119.919ZM125.33 19.176C125.207 19.64 124.962 20.0133 124.594 20.296C124.231 20.584 123.81 20.728 123.33 20.728C122.908 20.728 122.527 20.624 122.186 20.416C121.844 20.2133 121.575 19.9333 121.378 19.576C121.186 19.2133 121.09 18.8133 121.09 18.376C121.09 17.9387 121.186 17.5413 121.378 17.184C121.57 16.8213 121.834 16.5387 122.17 16.336C122.511 16.128 122.89 16.024 123.306 16.024C123.786 16.024 124.207 16.1653 124.57 16.448C124.938 16.7307 125.188 17.1013 125.322 17.56H124.978C124.855 17.192 124.644 16.896 124.346 16.672C124.052 16.448 123.706 16.336 123.306 16.336C122.943 16.336 122.618 16.4267 122.33 16.608C122.047 16.784 121.826 17.0267 121.666 17.336C121.506 17.6453 121.426 17.992 121.426 18.376C121.426 18.76 121.506 19.1067 121.666 19.416C121.826 19.7253 122.047 19.968 122.33 20.144C122.618 20.3253 122.943 20.416 123.306 20.416C123.706 20.416 124.058 20.3013 124.362 20.072C124.666 19.8427 124.874 19.544 124.986 19.176H125.33ZM126.045 20.936C126.535 20.4453 126.919 19.904 127.197 19.312C127.474 18.7147 127.613 18.08 127.613 17.408C127.613 16.736 127.474 16.104 127.197 15.512C126.919 14.9147 126.535 14.3707 126.045 13.88H126.477C126.946 14.3867 127.309 14.9307 127.565 15.512C127.826 16.0933 127.957 16.7253 127.957 17.408C127.957 18.0907 127.826 18.7227 127.565 19.304C127.309 19.8853 126.946 20.4293 126.477 20.936H126.045ZM130.8 14.16C131.21 14.16 131.568 14.2347 131.872 14.384C132.181 14.5333 132.418 14.7467 132.584 15.024C132.749 15.3013 132.832 15.6267 132.832 16C132.832 16.336 132.725 16.6693 132.512 17C132.304 17.3253 131.978 17.7013 131.536 18.128L129.264 20.304H133.112V20.616H128.76V20.304L131.2 17.968C131.637 17.5467 131.96 17.1787 132.168 16.864C132.381 16.544 132.488 16.256 132.488 16C132.488 15.52 132.333 15.1467 132.024 14.88C131.72 14.608 131.312 14.472 130.8 14.472C130.442 14.472 130.133 14.5493 129.872 14.704C129.616 14.8587 129.418 15.0667 129.28 15.328C129.146 15.584 129.08 15.864 129.08 16.168H128.736C128.736 15.8053 128.816 15.472 128.976 15.168C129.141 14.864 129.378 14.6213 129.688 14.44C130.002 14.2533 130.373 14.16 130.8 14.16ZM136.259 14.16C136.697 14.16 137.083 14.2853 137.419 14.536C137.761 14.7813 138.027 15.152 138.219 15.648C138.417 16.1387 138.515 16.7413 138.515 17.456C138.515 18.1707 138.417 18.776 138.219 19.272C138.027 19.7627 137.761 20.1307 137.419 20.376C137.083 20.6267 136.697 20.752 136.259 20.752C135.822 20.752 135.433 20.6267 135.091 20.376C134.755 20.1307 134.489 19.7627 134.291 19.272C134.099 18.776 134.003 18.1707 134.003 17.456C134.003 16.7413 134.099 16.1387 134.291 15.648C134.489 15.152 134.755 14.7813 135.091 14.536C135.433 14.2853 135.822 14.16 136.259 14.16ZM136.259 14.472C135.902 14.472 135.577 14.5867 135.283 14.816C134.995 15.0453 134.766 15.3867 134.595 15.84C134.43 16.288 134.347 16.8267 134.347 17.456C134.347 18.0853 134.43 18.6267 134.595 19.08C134.766 19.528 134.995 19.8667 135.283 20.096C135.577 20.3253 135.902 20.44 136.259 20.44C136.617 20.44 136.939 20.3253 137.227 20.096C137.521 19.8667 137.75 19.528 137.915 19.08C138.086 18.6267 138.171 18.0853 138.171 17.456C138.171 16.8267 138.086 16.288 137.915 15.84C137.75 15.3867 137.521 15.0453 137.227 14.816C136.939 14.5867 136.617 14.472 136.259 14.472ZM141.448 14.16C141.859 14.16 142.216 14.2347 142.52 14.384C142.83 14.5333 143.067 14.7467 143.232 15.024C143.398 15.3013 143.48 15.6267 143.48 16C143.48 16.336 143.374 16.6693 143.16 17C142.952 17.3253 142.627 17.7013 142.184 18.128L139.912 20.304H143.76V20.616H139.408V20.304L141.848 17.968C142.286 17.5467 142.608 17.1787 142.816 16.864C143.03 16.544 143.136 16.256 143.136 16C143.136 15.52 142.982 15.1467 142.672 14.88C142.368 14.608 141.96 14.472 141.448 14.472C141.091 14.472 140.782 14.5493 140.52 14.704C140.264 14.8587 140.067 15.0667 139.928 15.328C139.795 15.584 139.728 15.864 139.728 16.168H139.384C139.384 15.8053 139.464 15.472 139.624 15.168C139.79 14.864 140.027 14.6213 140.336 14.44C140.651 14.2533 141.022 14.16 141.448 14.16ZM147.578 19.056H144.13V18.752L147.57 14.296H147.914V18.752H149.122V19.056H147.914V20.616H147.578V19.056ZM147.578 18.752V14.784L144.53 18.752H147.578ZM156.443 18.776H152.923L152.139 20.616H151.763L154.475 14.296H154.883L157.595 20.616H157.227L156.443 18.776ZM156.299 18.456L154.683 14.672L153.067 18.456H156.299ZM158.908 20.616H158.572V14.104H158.908V20.616ZM160.713 20.616H160.377V14.104H160.713V20.616ZM164.424 16.136H164.76V17.248C164.813 17.0827 164.922 16.9067 165.088 16.72C165.253 16.528 165.472 16.3653 165.743 16.232C166.021 16.0933 166.333 16.024 166.68 16.024C166.941 16.024 167.146 16.0507 167.296 16.104V16.432C167.141 16.368 166.93 16.336 166.664 16.336C166.317 16.336 165.997 16.432 165.704 16.624C165.41 16.8107 165.178 17.056 165.008 17.36C164.842 17.6587 164.76 17.9653 164.76 18.28V20.616H164.424V16.136ZM168.381 14.144C168.461 14.144 168.527 14.1707 168.581 14.224C168.634 14.2773 168.661 14.344 168.661 14.424C168.661 14.504 168.634 14.5707 168.581 14.624C168.527 14.6773 168.461 14.704 168.381 14.704C168.301 14.704 168.234 14.6773 168.181 14.624C168.127 14.5707 168.101 14.504 168.101 14.424C168.101 14.344 168.127 14.2773 168.181 14.224C168.234 14.1707 168.301 14.144 168.381 14.144ZM168.549 20.616H168.213V16.136H168.549V20.616ZM172.137 22.664C171.545 22.664 171.076 22.5173 170.729 22.224C170.388 21.936 170.172 21.5627 170.081 21.104H170.433C170.497 21.4613 170.671 21.7573 170.953 21.992C171.241 22.232 171.636 22.352 172.137 22.352C172.66 22.352 173.081 22.1867 173.401 21.856C173.721 21.5307 173.881 21.0773 173.881 20.496V19.544C173.817 19.7253 173.697 19.9067 173.521 20.088C173.351 20.2693 173.129 20.4213 172.857 20.544C172.585 20.6667 172.284 20.728 171.953 20.728C171.543 20.728 171.172 20.624 170.841 20.416C170.511 20.2133 170.249 19.9333 170.057 19.576C169.871 19.2133 169.777 18.8133 169.777 18.376C169.777 17.9387 169.871 17.5413 170.057 17.184C170.249 16.8213 170.511 16.5387 170.841 16.336C171.172 16.128 171.543 16.024 171.953 16.024C172.284 16.024 172.585 16.0853 172.857 16.208C173.129 16.3307 173.351 16.4827 173.521 16.664C173.697 16.8453 173.817 17.0267 173.881 17.208V16.136H174.217V20.496C174.217 20.928 174.132 21.3067 173.961 21.632C173.791 21.9627 173.548 22.216 173.233 22.392C172.919 22.5733 172.553 22.664 172.137 22.664ZM171.977 20.416C172.345 20.416 172.673 20.3253 172.961 20.144C173.255 19.968 173.481 19.7253 173.641 19.416C173.807 19.1013 173.889 18.7547 173.889 18.376C173.889 17.9973 173.807 17.6533 173.641 17.344C173.481 17.0293 173.255 16.784 172.961 16.608C172.673 16.4267 172.345 16.336 171.977 16.336C171.609 16.336 171.284 16.4267 171.001 16.608C170.719 16.784 170.5 17.0267 170.345 17.336C170.191 17.6453 170.113 17.992 170.113 18.376C170.113 18.76 170.191 19.1067 170.345 19.416C170.5 19.7253 170.719 19.968 171.001 20.144C171.284 20.3253 171.609 20.416 171.977 20.416ZM175.689 14.104H176.025V17.248C176.073 17.0827 176.177 16.9067 176.337 16.72C176.497 16.528 176.708 16.3653 176.969 16.232C177.236 16.0933 177.54 16.024 177.881 16.024C178.222 16.024 178.526 16.104 178.793 16.264C179.065 16.424 179.276 16.6533 179.425 16.952C179.574 17.2453 179.649 17.584 179.649 17.968V20.616H179.313V18.024C179.313 17.4853 179.18 17.0693 178.913 16.776C178.646 16.4827 178.278 16.336 177.809 16.336C177.489 16.336 177.19 16.432 176.913 16.624C176.641 16.8107 176.425 17.056 176.265 17.36C176.105 17.6587 176.025 17.9653 176.025 18.28V20.616H175.689V14.104ZM182.948 16.448H181.86V20.616H181.524V16.448H180.436V16.136H181.524V14.744H181.86V16.136H182.948V16.448ZM185.556 16.024C185.908 16.024 186.226 16.0773 186.508 16.184C186.791 16.2853 187.015 16.4267 187.18 16.608C187.346 16.784 187.431 16.9787 187.436 17.192H187.1C187.095 17.032 187.02 16.8853 186.876 16.752C186.738 16.6187 186.551 16.5147 186.316 16.44C186.082 16.3653 185.82 16.328 185.532 16.328C185.255 16.328 185.004 16.3653 184.78 16.44C184.556 16.5147 184.38 16.6187 184.252 16.752C184.124 16.8853 184.06 17.032 184.06 17.192C184.06 17.3733 184.103 17.528 184.188 17.656C184.279 17.784 184.444 17.8933 184.684 17.984C184.924 18.0747 185.266 18.1467 185.708 18.2C186.37 18.2747 186.842 18.416 187.124 18.624C187.412 18.832 187.556 19.1013 187.556 19.432C187.556 19.6987 187.471 19.928 187.3 20.12C187.13 20.3173 186.895 20.4667 186.596 20.568C186.298 20.6747 185.964 20.728 185.596 20.728C185.202 20.728 184.86 20.672 184.572 20.56C184.29 20.448 184.068 20.2987 183.908 20.112C183.754 19.9253 183.663 19.72 183.636 19.496H183.98C183.996 19.6507 184.066 19.8 184.188 19.944C184.311 20.0827 184.492 20.1973 184.732 20.288C184.972 20.3787 185.268 20.424 185.62 20.424C185.924 20.424 186.196 20.3813 186.436 20.296C186.682 20.216 186.874 20.1013 187.012 19.952C187.151 19.8027 187.22 19.6347 187.22 19.448C187.22 19.272 187.17 19.1253 187.068 19.008C186.967 18.8853 186.794 18.7813 186.548 18.696C186.303 18.6107 185.959 18.5413 185.516 18.488C184.866 18.408 184.404 18.264 184.132 18.056C183.86 17.848 183.724 17.5707 183.724 17.224C183.724 16.984 183.802 16.7733 183.956 16.592C184.116 16.4107 184.335 16.272 184.612 16.176C184.89 16.0747 185.204 16.024 185.556 16.024ZM191.002 16.136H191.338V17.248C191.391 17.0827 191.5 16.9067 191.666 16.72C191.831 16.528 192.05 16.3653 192.322 16.232C192.599 16.0933 192.911 16.024 193.258 16.024C193.519 16.024 193.724 16.0507 193.874 16.104V16.432C193.719 16.368 193.508 16.336 193.242 16.336C192.895 16.336 192.575 16.432 192.282 16.624C191.988 16.8107 191.756 17.056 191.586 17.36C191.42 17.6587 191.338 17.9653 191.338 18.28V20.616H191.002V16.136ZM196.406 20.728C195.996 20.728 195.625 20.624 195.294 20.416C194.964 20.2133 194.702 19.9333 194.51 19.576C194.324 19.2187 194.23 18.8187 194.23 18.376C194.23 17.9333 194.324 17.5333 194.51 17.176C194.702 16.8187 194.964 16.5387 195.294 16.336C195.625 16.128 195.996 16.024 196.406 16.024C196.817 16.024 197.188 16.128 197.518 16.336C197.849 16.5387 198.108 16.8187 198.294 17.176C198.486 17.5333 198.582 17.9333 198.582 18.376C198.582 18.4507 198.58 18.5013 198.574 18.528H194.574C194.596 18.8853 194.686 19.208 194.846 19.496C195.006 19.784 195.22 20.008 195.486 20.168C195.758 20.3333 196.065 20.416 196.406 20.416C196.796 20.416 197.134 20.328 197.422 20.152C197.716 19.9813 197.913 19.76 198.014 19.488H198.382C198.254 19.8507 198.012 20.1467 197.654 20.376C197.302 20.6107 196.886 20.728 196.406 20.728ZM198.238 18.216C198.217 17.8587 198.126 17.5387 197.966 17.256C197.806 16.968 197.59 16.744 197.318 16.584C197.052 16.4187 196.748 16.336 196.406 16.336C196.065 16.336 195.758 16.4187 195.486 16.584C195.22 16.744 195.006 16.968 194.846 17.256C194.686 17.5387 194.596 17.8587 194.574 18.216H198.238ZM201.463 16.024C201.815 16.024 202.132 16.0773 202.415 16.184C202.697 16.2853 202.921 16.4267 203.087 16.608C203.252 16.784 203.337 16.9787 203.343 17.192H203.007C203.001 17.032 202.927 16.8853 202.783 16.752C202.644 16.6187 202.457 16.5147 202.223 16.44C201.988 16.3653 201.727 16.328 201.439 16.328C201.161 16.328 200.911 16.3653 200.687 16.44C200.463 16.5147 200.287 16.6187 200.159 16.752C200.031 16.8853 199.967 17.032 199.967 17.192C199.967 17.3733 200.009 17.528 200.095 17.656C200.185 17.784 200.351 17.8933 200.591 17.984C200.831 18.0747 201.172 18.1467 201.615 18.2C202.276 18.2747 202.748 18.416 203.031 18.624C203.319 18.832 203.463 19.1013 203.463 19.432C203.463 19.6987 203.377 19.928 203.207 20.12C203.036 20.3173 202.801 20.4667 202.503 20.568C202.204 20.6747 201.871 20.728 201.503 20.728C201.108 20.728 200.767 20.672 200.479 20.56C200.196 20.448 199.975 20.2987 199.815 20.112C199.66 19.9253 199.569 19.72 199.543 19.496H199.887C199.903 19.6507 199.972 19.8 200.095 19.944C200.217 20.0827 200.399 20.1973 200.639 20.288C200.879 20.3787 201.175 20.424 201.527 20.424C201.831 20.424 202.103 20.3813 202.343 20.296C202.588 20.216 202.78 20.1013 202.919 19.952C203.057 19.8027 203.127 19.6347 203.127 19.448C203.127 19.272 203.076 19.1253 202.975 19.008C202.873 18.8853 202.7 18.7813 202.455 18.696C202.209 18.6107 201.865 18.5413 201.423 18.488C200.772 18.408 200.311 18.264 200.039 18.056C199.767 17.848 199.631 17.5707 199.631 17.224C199.631 16.984 199.708 16.7733 199.863 16.592C200.023 16.4107 200.241 16.272 200.519 16.176C200.796 16.0747 201.111 16.024 201.463 16.024ZM206.602 20.728C206.191 20.728 205.82 20.624 205.49 20.416C205.159 20.2133 204.898 19.9333 204.706 19.576C204.519 19.2187 204.426 18.8187 204.426 18.376C204.426 17.9333 204.519 17.5333 204.706 17.176C204.898 16.8187 205.159 16.5387 205.49 16.336C205.82 16.128 206.191 16.024 206.602 16.024C207.012 16.024 207.383 16.128 207.714 16.336C208.044 16.5387 208.303 16.8187 208.49 17.176C208.682 17.5333 208.778 17.9333 208.778 18.376C208.778 18.4507 208.775 18.5013 208.77 18.528H204.77C204.791 18.8853 204.882 19.208 205.042 19.496C205.202 19.784 205.415 20.008 205.682 20.168C205.954 20.3333 206.26 20.416 206.602 20.416C206.991 20.416 207.33 20.328 207.618 20.152C207.911 19.9813 208.108 19.76 208.21 19.488H208.578C208.45 19.8507 208.207 20.1467 207.85 20.376C207.498 20.6107 207.082 20.728 206.602 20.728ZM208.434 18.216C208.412 17.8587 208.322 17.5387 208.162 17.256C208.002 16.968 207.786 16.744 207.514 16.584C207.247 16.4187 206.943 16.336 206.602 16.336C206.26 16.336 205.954 16.4187 205.682 16.584C205.415 16.744 205.202 16.968 205.042 17.256C204.882 17.5387 204.791 17.8587 204.77 18.216H208.434ZM209.986 16.136H210.322V17.248C210.375 17.0827 210.485 16.9067 210.65 16.72C210.815 16.528 211.034 16.3653 211.306 16.232C211.583 16.0933 211.895 16.024 212.242 16.024C212.503 16.024 212.709 16.0507 212.858 16.104V16.432C212.703 16.368 212.493 16.336 212.226 16.336C211.879 16.336 211.559 16.432 211.266 16.624C210.973 16.8107 210.741 17.056 210.57 17.36C210.405 17.6587 210.322 17.9653 210.322 18.28V20.616H209.986V16.136ZM217.853 16.136L215.813 20.616H215.437L213.397 16.136H213.765L215.629 20.264L217.493 16.136H217.853ZM220.461 20.728C220.05 20.728 219.68 20.624 219.349 20.416C219.018 20.2133 218.757 19.9333 218.565 19.576C218.378 19.2187 218.285 18.8187 218.285 18.376C218.285 17.9333 218.378 17.5333 218.565 17.176C218.757 16.8187 219.018 16.5387 219.349 16.336C219.68 16.128 220.05 16.024 220.461 16.024C220.872 16.024 221.242 16.128 221.573 16.336C221.904 16.5387 222.162 16.8187 222.349 17.176C222.541 17.5333 222.637 17.9333 222.637 18.376C222.637 18.4507 222.634 18.5013 222.629 18.528H218.629C218.65 18.8853 218.741 19.208 218.901 19.496C219.061 19.784 219.274 20.008 219.541 20.168C219.813 20.3333 220.12 20.416 220.461 20.416C220.85 20.416 221.189 20.328 221.477 20.152C221.77 19.9813 221.968 19.76 222.069 19.488H222.437C222.309 19.8507 222.066 20.1467 221.709 20.376C221.357 20.6107 220.941 20.728 220.461 20.728ZM222.293 18.216C222.272 17.8587 222.181 17.5387 222.021 17.256C221.861 16.968 221.645 16.744 221.373 16.584C221.106 16.4187 220.802 16.336 220.461 16.336C220.12 16.336 219.813 16.4187 219.541 16.584C219.274 16.744 219.061 16.968 218.901 17.256C218.741 17.5387 218.65 17.8587 218.629 18.216H222.293ZM225.581 20.728C225.171 20.728 224.8 20.624 224.469 20.416C224.139 20.2133 223.877 19.9333 223.685 19.576C223.499 19.2133 223.405 18.8133 223.405 18.376C223.405 17.9387 223.499 17.5413 223.685 17.184C223.877 16.8213 224.139 16.5387 224.469 16.336C224.8 16.128 225.171 16.024 225.581 16.024C225.912 16.024 226.213 16.0853 226.485 16.208C226.757 16.3307 226.979 16.4827 227.149 16.664C227.325 16.8453 227.445 17.0267 227.509 17.208V14.104H227.845V20.616H227.509V19.544C227.445 19.7253 227.325 19.9067 227.149 20.088C226.979 20.2693 226.757 20.4213 226.485 20.544C226.213 20.6667 225.912 20.728 225.581 20.728ZM225.605 20.416C225.973 20.416 226.301 20.3253 226.589 20.144C226.883 19.968 227.109 19.7253 227.269 19.416C227.435 19.1013 227.517 18.7547 227.517 18.376C227.517 17.9973 227.435 17.6533 227.269 17.344C227.109 17.0293 226.883 16.784 226.589 16.608C226.301 16.4267 225.973 16.336 225.605 16.336C225.237 16.336 224.912 16.4267 224.629 16.608C224.347 16.784 224.128 17.0267 223.973 17.336C223.819 17.6453 223.741 17.992 223.741 18.376C223.741 18.76 223.819 19.1067 223.973 19.416C224.128 19.7253 224.347 19.968 224.629 20.144C224.912 20.3253 225.237 20.416 225.605 20.416ZM234.023 20.728C233.693 20.728 233.391 20.6667 233.119 20.544C232.847 20.4213 232.623 20.2693 232.447 20.088C232.277 19.9067 232.159 19.7253 232.095 19.544V20.616H231.759V14.104H232.095V17.208C232.159 17.0267 232.277 16.8453 232.447 16.664C232.623 16.4827 232.847 16.3307 233.119 16.208C233.391 16.0853 233.693 16.024 234.023 16.024C234.434 16.024 234.805 16.128 235.135 16.336C235.466 16.5387 235.725 16.8213 235.911 17.184C236.103 17.5413 236.199 17.9387 236.199 18.376C236.199 18.8133 236.103 19.2133 235.911 19.576C235.725 19.9333 235.466 20.2133 235.135 20.416C234.805 20.624 234.434 20.728 234.023 20.728ZM233.999 20.416C234.367 20.416 234.693 20.3253 234.975 20.144C235.258 19.968 235.477 19.7253 235.631 19.416C235.786 19.1067 235.863 18.76 235.863 18.376C235.863 17.992 235.786 17.6453 235.631 17.336C235.477 17.0267 235.258 16.784 234.975 16.608C234.693 16.4267 234.367 16.336 233.999 16.336C233.631 16.336 233.301 16.4267 233.007 16.608C232.719 16.784 232.493 17.0293 232.327 17.344C232.167 17.6533 232.087 17.9973 232.087 18.376C232.087 18.7547 232.167 19.1013 232.327 19.416C232.493 19.7253 232.719 19.968 233.007 20.144C233.301 20.3253 233.631 20.416 233.999 20.416ZM241.173 16.136L238.181 22.552H237.821L238.757 20.552L236.709 16.136H237.077L238.941 20.168L240.813 16.136H241.173ZM246.44 16.448H245.352V20.616H245.016V16.448H243.928V16.136H245.016V14.744H245.352V16.136H246.44V16.448ZM249.125 20.728C248.714 20.728 248.344 20.624 248.013 20.416C247.682 20.2133 247.421 19.9333 247.229 19.576C247.042 19.2187 246.949 18.8187 246.949 18.376C246.949 17.9333 247.042 17.5333 247.229 17.176C247.421 16.8187 247.682 16.5387 248.013 16.336C248.344 16.128 248.714 16.024 249.125 16.024C249.536 16.024 249.906 16.128 250.237 16.336C250.568 16.5387 250.826 16.8187 251.013 17.176C251.205 17.5333 251.301 17.9333 251.301 18.376C251.301 18.4507 251.298 18.5013 251.293 18.528H247.293C247.314 18.8853 247.405 19.208 247.565 19.496C247.725 19.784 247.938 20.008 248.205 20.168C248.477 20.3333 248.784 20.416 249.125 20.416C249.514 20.416 249.853 20.328 250.141 20.152C250.434 19.9813 250.632 19.76 250.733 19.488H251.101C250.973 19.8507 250.73 20.1467 250.373 20.376C250.021 20.6107 249.605 20.728 249.125 20.728ZM250.957 18.216C250.936 17.8587 250.845 17.5387 250.685 17.256C250.525 16.968 250.309 16.744 250.037 16.584C249.77 16.4187 249.466 16.336 249.125 16.336C248.784 16.336 248.477 16.4187 248.205 16.584C247.938 16.744 247.725 16.968 247.565 17.256C247.405 17.5387 247.314 17.8587 247.293 18.216H250.957ZM254.445 20.728C254.035 20.728 253.664 20.624 253.333 20.416C253.003 20.2133 252.741 19.9333 252.549 19.576C252.363 19.2133 252.269 18.8133 252.269 18.376C252.269 17.9387 252.363 17.5413 252.549 17.184C252.741 16.8213 253.003 16.5387 253.333 16.336C253.664 16.128 254.035 16.024 254.445 16.024C254.776 16.024 255.077 16.0853 255.349 16.208C255.621 16.3307 255.843 16.4827 256.013 16.664C256.189 16.8453 256.309 17.0267 256.373 17.208V16.136H256.709V20.616H256.373V19.544C256.309 19.7253 256.189 19.9067 256.013 20.088C255.843 20.2693 255.621 20.4213 255.349 20.544C255.077 20.6667 254.776 20.728 254.445 20.728ZM254.469 20.416C254.837 20.416 255.165 20.3253 255.453 20.144C255.747 19.968 255.973 19.7253 256.133 19.416C256.299 19.1013 256.381 18.7547 256.381 18.376C256.381 17.9973 256.299 17.6533 256.133 17.344C255.973 17.0293 255.747 16.784 255.453 16.608C255.165 16.4267 254.837 16.336 254.469 16.336C254.101 16.336 253.776 16.4267 253.493 16.608C253.211 16.784 252.992 17.0267 252.837 17.336C252.683 17.6453 252.605 17.992 252.605 18.376C252.605 18.76 252.683 19.1067 252.837 19.416C252.992 19.7253 253.211 19.968 253.493 20.144C253.776 20.3253 254.101 20.416 254.469 20.416ZM258.181 16.136H258.517V17.12C258.619 16.8533 258.803 16.6053 259.069 16.376C259.341 16.1413 259.696 16.024 260.133 16.024C260.507 16.024 260.819 16.1387 261.069 16.368C261.325 16.592 261.493 16.9013 261.573 17.296C261.696 16.912 261.909 16.6053 262.213 16.376C262.517 16.1413 262.875 16.024 263.285 16.024C263.568 16.024 263.824 16.0987 264.053 16.248C264.288 16.392 264.472 16.5973 264.605 16.864C264.739 17.1307 264.805 17.4347 264.805 17.776V20.616H264.469V17.832C264.469 17.3733 264.355 17.0107 264.125 16.744C263.896 16.472 263.592 16.336 263.213 16.336C262.931 16.336 262.669 16.424 262.429 16.6C262.195 16.776 262.008 17.0107 261.869 17.304C261.731 17.592 261.661 17.8987 261.661 18.224V20.616H261.325V17.888C261.325 17.408 261.211 17.0293 260.981 16.752C260.752 16.4747 260.448 16.336 260.069 16.336C259.792 16.336 259.533 16.4267 259.293 16.608C259.053 16.784 258.864 17.016 258.725 17.304C258.587 17.592 258.517 17.8933 258.517 18.208V20.616H258.181V16.136ZM266.27 20C266.377 20 266.465 20.0373 266.534 20.112C266.609 20.1867 266.646 20.2747 266.646 20.376C266.646 20.4827 266.609 20.5707 266.534 20.64C266.465 20.7147 266.377 20.752 266.27 20.752C266.169 20.752 266.081 20.7147 266.006 20.64C265.931 20.5707 265.894 20.4827 265.894 20.376C265.894 20.2747 265.931 20.1867 266.006 20.112C266.081 20.0373 266.169 20 266.27 20ZM270.845 15.96C270.461 16.6213 269.992 17.1493 269.437 17.544C268.888 17.9387 268.32 18.136 267.733 18.136V17.816C268.245 17.816 268.738 17.6453 269.213 17.304C269.693 16.9573 270.106 16.4987 270.453 15.928C270.8 15.352 271.048 14.7333 271.197 14.072L271.549 14.16C271.432 14.688 271.248 15.1973 270.997 15.688L274.077 17.904L273.869 18.144L270.845 15.96ZM274.349 20.12V20.432H267.597V20.12H270.797V17.872H271.133V20.12H274.349ZM282.044 17.328V17.64H275.292V17.328H278.5V16.352H275.852V14.152H281.508V14.464H276.188V16.04H281.588V16.352H278.836V17.328H282.044ZM278.668 18.456C279.5 18.456 280.191 18.5467 280.74 18.728C281.295 18.9093 281.572 19.208 281.572 19.624C281.572 20.04 281.295 20.3387 280.74 20.52C280.191 20.7013 279.5 20.792 278.668 20.792C277.836 20.792 277.143 20.7013 276.588 20.52C276.039 20.3387 275.764 20.04 275.764 19.624C275.764 19.208 276.039 18.9093 276.588 18.728C277.143 18.5467 277.836 18.456 278.668 18.456ZM278.668 20.48C279.372 20.48 279.975 20.4107 280.476 20.272C280.983 20.1387 281.236 19.9227 281.236 19.624C281.236 19.3253 280.983 19.1093 280.476 18.976C279.975 18.8373 279.372 18.768 278.668 18.768C277.964 18.768 277.359 18.8373 276.852 18.976C276.351 19.1093 276.1 19.3253 276.1 19.624C276.1 19.9227 276.351 20.1387 276.852 20.272C277.359 20.4107 277.964 20.48 278.668 20.48Z" fill="#1E1E1E"/>
</svg>
