<svg width="35" height="35" viewBox="0 0 35 35" fill="none" xmlns="http://www.w3.org/2000/svg">
<mask id="mask0_1524_737" style="mask-type:alpha" maskUnits="userSpaceOnUse" x="0" y="0" width="35" height="35">
<rect width="35" height="35" fill="#D9D9D9"/>
</mask>
<g mask="url(#mask0_1524_737)">
<path d="M3.8645 14.3282V8.96883C3.8645 8.3697 4.06721 7.86742 4.47263 7.46201C4.8778 7.05683 5.37995 6.85425 5.97909 6.85425H9.40617C10.0053 6.85425 10.5076 7.05683 10.913 7.46201C11.3182 7.86742 11.5208 8.3697 11.5208 8.96883V14.3282C11.5208 14.9273 11.3182 15.4296 10.913 15.835C10.5076 16.2402 10.0053 16.4428 9.40617 16.4428H5.97909C5.37995 16.4428 4.8778 16.2402 4.47263 15.835C4.06721 15.4296 3.8645 14.9273 3.8645 14.3282ZM15.7499 16.4428C15.1508 16.4428 14.6485 16.2402 14.2431 15.835C13.8379 15.4296 13.6353 14.9273 13.6353 14.3282V8.96883C13.6353 8.3697 13.8379 7.86742 14.2431 7.46201C14.6485 7.05683 15.1508 6.85425 15.7499 6.85425H19.2499C19.849 6.85425 20.3513 7.05683 20.7567 7.46201C21.1619 7.86742 21.3645 8.3697 21.3645 8.96883V14.3282C21.3645 14.9273 21.1619 15.4296 20.7567 15.835C20.3513 16.2402 19.849 16.4428 19.2499 16.4428H15.7499ZM25.5937 16.4428C24.9945 16.4428 24.4923 16.2402 24.0868 15.835C23.6817 15.4296 23.4791 14.9273 23.4791 14.3282V8.96883C23.4791 8.3697 23.6817 7.86742 24.0868 7.46201C24.4923 7.05683 24.9945 6.85425 25.5937 6.85425H29.0208C29.6199 6.85425 30.1222 7.05683 30.5276 7.46201C30.9327 7.86742 31.1353 8.3697 31.1353 8.96883V14.3282C31.1353 14.9273 30.9327 15.4296 30.5276 15.835C30.1222 16.2402 29.6199 16.4428 29.0208 16.4428H25.5937ZM9.40617 28.1459H5.97909C5.37995 28.1459 4.8778 27.9432 4.47263 27.5378C4.06721 27.1326 3.8645 26.6305 3.8645 26.0313V20.672C3.8645 20.0728 4.06721 19.5706 4.47263 19.1651C4.8778 18.76 5.37995 18.5574 5.97909 18.5574H9.40617C10.0053 18.5574 10.5076 18.76 10.913 19.1651C11.3182 19.5706 11.5208 20.0728 11.5208 20.672V26.0313C11.5208 26.6305 11.3182 27.1326 10.913 27.5378C10.5076 27.9432 10.0053 28.1459 9.40617 28.1459ZM15.7499 28.1459C15.1508 28.1459 14.6485 27.9432 14.2431 27.5378C13.8379 27.1326 13.6353 26.6305 13.6353 26.0313V20.672C13.6353 20.0728 13.8379 19.5706 14.2431 19.1651C14.6485 18.76 15.1508 18.5574 15.7499 18.5574H19.2499C19.849 18.5574 20.3513 18.76 20.7567 19.1651C21.1619 19.5706 21.3645 20.0728 21.3645 20.672V26.0313C21.3645 26.6305 21.1619 27.1326 20.7567 27.5378C20.3513 27.9432 19.849 28.1459 19.2499 28.1459H15.7499ZM25.5937 28.1459C24.9945 28.1459 24.4923 27.9432 24.0868 27.5378C23.6817 27.1326 23.4791 26.6305 23.4791 26.0313V20.672C23.4791 20.0728 23.6817 19.5706 24.0868 19.1651C24.4923 18.76 24.9945 18.5574 25.5937 18.5574H29.0208C29.6199 18.5574 30.1222 18.76 30.5276 19.1651C30.9327 19.5706 31.1353 20.0728 31.1353 20.672V26.0313C31.1353 26.6305 30.9327 27.1326 30.5276 27.5378C30.1222 27.9432 29.6199 28.1459 29.0208 28.1459H25.5937Z" fill="#D9D9D9"/>
</g>
</svg>
