<svg width="35" height="35" viewBox="0 0 35 35" fill="none" xmlns="http://www.w3.org/2000/svg">
<mask id="mask0_1524_743" style="mask-type:alpha" maskUnits="userSpaceOnUse" x="0" y="0" width="35" height="35">
<rect width="35" height="35" fill="#D9D9D9"/>
</mask>
<g mask="url(#mask0_1524_743)">
<path fill-rule="evenodd" clip-rule="evenodd" d="M18.7031 6.54988C17.9312 5.81671 16.7203 5.81671 15.9484 6.54988L4.62665 17.3037C3.31667 18.5479 4.1973 20.7538 6.00403 20.7538H8.20093V27.141C8.20093 27.608 8.93092 28.3576 9.41757 28.3576H13.6758C14.6592 28.3576 14.8925 27.6277 14.8925 27.141V21.6661C14.8925 21.3646 15.0783 21.0038 15.3023 20.7538H19.2376C19.5066 21.0156 19.759 21.3232 19.759 21.6661V27.141C19.759 27.6723 20.489 28.3576 20.9757 28.3576H25.2339C25.6395 28.3576 26.4505 27.7637 26.4505 27.2771V20.7538H28.6475C30.4542 20.7538 31.3349 18.5479 30.0249 17.3037L18.7031 6.54988Z" fill="#D9D9D9"/>
</g>
</svg>
