<svg width="24" height="24" viewBox="0 0 24 24" fill="none" xmlns="http://www.w3.org/2000/svg">
<path d="M16.0001 21.5C15.6026 21.4985 15.2217 21.3404 14.9401 21.06L6.94005 13.06C6.65668 12.78 6.49719 12.3983 6.49719 12C6.49719 11.6017 6.65668 11.2199 6.94005 10.94L14.9401 2.93998C15.314 2.53867 15.8772 2.37348 16.4086 2.50921C16.9401 2.64494 17.3551 3.05994 17.4908 3.5914C17.6266 4.12287 17.4614 4.68604 17.0601 5.05998L10.1201 12L17.0601 18.94C17.3434 19.2199 17.5029 19.6017 17.5029 20C17.5029 20.3983 17.3434 20.78 17.0601 21.06C16.7784 21.3404 16.3975 21.4985 16.0001 21.5Z" fill="#212121"/>
</svg>
