<svg width="27" height="23" viewBox="0 0 27 23" fill="none" xmlns="http://www.w3.org/2000/svg">
<path fill-rule="evenodd" clip-rule="evenodd" d="M14.7031 0.549882C13.9312 -0.183293 12.7203 -0.183294 11.9484 0.549881L0.626652 11.3037C-0.683328 12.5479 0.197304 14.7538 2.00403 14.7538H4.20093V21.141C4.20093 21.608 4.93092 22.3576 5.41757 22.3576H9.67582C10.6592 22.3576 10.8925 21.6277 10.8925 21.141V15.6661C10.8925 15.3646 11.0783 15.0038 11.3023 14.7538H15.2376C15.5066 15.0156 15.759 15.3232 15.759 15.6661V21.141C15.759 21.6723 16.489 22.3576 16.9757 22.3576H21.2339C21.6395 22.3576 22.4505 21.7637 22.4505 21.277V14.7538H24.6475C26.4542 14.7538 27.3349 12.5479 26.0249 11.3037L14.7031 0.549882Z" fill="#B7CBFF"/>
</svg>
