<svg width="23" height="20" viewBox="0 0 23 20" fill="none" xmlns="http://www.w3.org/2000/svg">
<path d="M10.0403 1.54979L10.5568 2.09359L10.5568 2.09359L10.0403 1.54979ZM12.7951 1.54979L12.2786 2.09359L12.2786 2.09359L12.7951 1.54979ZM1.62665 9.5414L1.11013 8.9976L1.11013 8.9976L1.62665 9.5414ZM3.9177 12.9915H4.6677V12.2415H3.9177V12.9915ZM9.75464 12.9915V12.2415H9.41956L9.19599 12.4911L9.75464 12.9915ZM12.989 12.9915L13.5121 12.454L13.2938 12.2415H12.989V12.9915ZM18.9177 12.9915V12.2415H18.1677V12.9915H18.9177ZM21.2088 9.5414L21.7253 8.9976L21.7253 8.9976L21.2088 9.5414ZM10.5568 2.09359C11.0393 1.63535 11.7961 1.63535 12.2786 2.09359L13.3116 1.006C12.2502 -0.0021186 10.5852 -0.00211685 9.52382 1.006L10.5568 2.09359ZM2.14316 10.0852L10.5568 2.09359L9.52382 1.006L1.11013 8.9976L2.14316 10.0852ZM3.00402 12.2415C1.87482 12.2415 1.32442 10.8629 2.14316 10.0852L1.11013 8.9976C-0.69109 10.7085 0.519772 13.7415 3.00402 13.7415V12.2415ZM3.9177 12.2415H3.00402V13.7415H3.9177V12.2415ZM4.6677 18.2415V12.9915H3.1677V18.2415H4.6677ZM4.9177 18.4915C4.96224 18.4915 4.98767 18.4997 4.98963 18.5003C4.99239 18.5012 4.98311 18.4984 4.96252 18.4868C4.91964 18.4625 4.86087 18.4186 4.80069 18.3578C4.74057 18.2971 4.69674 18.2373 4.67227 18.1936C4.66047 18.1725 4.65756 18.1629 4.65843 18.1656C4.65892 18.1672 4.6677 18.1941 4.6677 18.2415H3.1677C3.1677 18.5168 3.26897 18.7575 3.36313 18.9258C3.46366 19.1055 3.59483 19.2718 3.73472 19.4131C3.87454 19.5544 4.04077 19.6885 4.22289 19.7917C4.39516 19.8894 4.63838 19.9915 4.9177 19.9915V18.4915ZM8.4177 18.4915H4.9177V19.9915H8.4177V18.4915ZM8.6677 18.2415C8.6677 18.2841 8.66233 18.3295 8.65142 18.3696C8.64059 18.4095 8.62758 18.4324 8.61932 18.4435C8.61357 18.4512 8.60782 18.4571 8.59327 18.464C8.57685 18.4718 8.52601 18.4915 8.4177 18.4915V19.9915C9.03359 19.9915 9.5174 19.7489 9.8223 19.3395C10.0991 18.9678 10.1677 18.5408 10.1677 18.2415H8.6677ZM8.6677 13.7415V18.2415H10.1677V13.7415H8.6677ZM9.19599 12.4911C8.9453 12.771 8.6677 13.2388 8.6677 13.7415H10.1677C10.1677 13.7619 10.1646 13.7366 10.1964 13.6685C10.2257 13.6059 10.2688 13.5416 10.3133 13.4919L9.19599 12.4911ZM12.989 12.2415H9.75464V13.7415H12.989V12.2415ZM14.1677 13.7415C14.1677 13.1132 13.7247 12.6609 13.5121 12.454L12.466 13.529C12.5605 13.621 12.6195 13.6905 12.653 13.7433C12.6854 13.7943 12.6677 13.7888 12.6677 13.7415H14.1677ZM14.1677 18.2415V13.7415H12.6677V18.2415H14.1677ZM14.4177 18.4915C14.4825 18.4915 14.4932 18.5101 14.444 18.484C14.4026 18.4621 14.3472 18.423 14.2918 18.3688C14.2364 18.3146 14.1972 18.2614 14.1756 18.222C14.1513 18.1775 14.1677 18.1855 14.1677 18.2415H12.6677C12.6677 18.759 12.9879 19.1919 13.2436 19.4417C13.3882 19.583 13.5578 19.712 13.7415 19.8093C13.9173 19.9025 14.1529 19.9915 14.4177 19.9915V18.4915ZM17.9177 18.4915H14.4177V19.9915H17.9177V18.4915ZM18.1677 18.3533C18.1677 18.2994 18.1788 18.2631 18.184 18.2488C18.1892 18.2346 18.1915 18.234 18.1834 18.2461C18.1658 18.2727 18.127 18.318 18.0651 18.3691C18.0046 18.4192 17.9417 18.4583 17.8925 18.4817C17.8685 18.4931 17.855 18.4973 17.8529 18.4979C17.8485 18.4991 17.8721 18.4915 17.9177 18.4915V19.9915C18.1602 19.9915 18.3812 19.9102 18.5367 19.8363C18.7062 19.7557 18.8725 19.6477 19.0203 19.5257C19.1667 19.4048 19.3154 19.2531 19.4332 19.0756C19.5461 18.9056 19.6677 18.6553 19.6677 18.3533H18.1677ZM18.1677 12.9915V18.3533H19.6677V12.9915H18.1677ZM19.8314 12.2415H18.9177V13.7415H19.8314V12.2415ZM20.6922 10.0852C21.511 10.8629 20.9606 12.2415 19.8314 12.2415V13.7415C22.3156 13.7415 23.5265 10.7085 21.7253 8.9976L20.6922 10.0852ZM12.2786 2.09359L20.6922 10.0852L21.7253 8.9976L13.3116 1.006L12.2786 2.09359Z" fill="#1867FF"/>
</svg>
