<svg width="19" height="19" viewBox="0 0 19 19" fill="none" xmlns="http://www.w3.org/2000/svg">
<path fill-rule="evenodd" clip-rule="evenodd" d="M2 0C0.895431 0 0 0.89543 0 2V7C0 8.10457 0.89543 9 2 9H7C8.10457 9 9 8.10457 9 7V2C9 0.895431 8.10457 0 7 0H2ZM3 1C1.89543 1 1 1.89543 1 3V6C1 7.10457 1.89543 8 3 8H6C7.10457 8 8 7.10457 8 6V3C8 1.89543 7.10457 1 6 1H3Z" fill="#5E5E5E"/>
<path fill-rule="evenodd" clip-rule="evenodd" d="M12 0C10.8954 0 10 0.89543 10 2V7C10 8.10457 10.8954 9 12 9H17C18.1046 9 19 8.10457 19 7V2C19 0.895431 18.1046 0 17 0H12ZM13 1C11.8954 1 11 1.89543 11 3V6C11 7.10457 11.8954 8 13 8H16C17.1046 8 18 7.10457 18 6V3C18 1.89543 17.1046 1 16 1H13Z" fill="#5E5E5E"/>
<path fill-rule="evenodd" clip-rule="evenodd" d="M12 10C10.8954 10 10 10.8954 10 12V17C10 18.1046 10.8954 19 12 19H17C18.1046 19 19 18.1046 19 17V12C19 10.8954 18.1046 10 17 10H12ZM13 11C11.8954 11 11 11.8954 11 13V16C11 17.1046 11.8954 18 13 18H16C17.1046 18 18 17.1046 18 16V13C18 11.8954 17.1046 11 16 11H13Z" fill="#5E5E5E"/>
<path fill-rule="evenodd" clip-rule="evenodd" d="M2 10C0.895431 10 0 10.8954 0 12V17C0 18.1046 0.89543 19 2 19H7C8.10457 19 9 18.1046 9 17V12C9 10.8954 8.10457 10 7 10H2ZM3 11C1.89543 11 1 11.8954 1 13V16C1 17.1046 1.89543 18 3 18H6C7.10457 18 8 17.1046 8 16V13C8 11.8954 7.10457 11 6 11H3Z" fill="#5E5E5E"/>
</svg>
