<svg width="35" height="35" viewBox="0 0 35 35" fill="none" xmlns="http://www.w3.org/2000/svg">
<mask id="mask0_1521_4049" style="mask-type:alpha" maskUnits="userSpaceOnUse" x="0" y="0" width="35" height="35">
<rect width="35" height="35" fill="#D9D9D9"/>
</mask>
<g mask="url(#mask0_1521_4049)">
<path d="M3.86444 14.3282V8.96883C3.86444 8.3697 4.06715 7.86742 4.47257 7.46201C4.87774 7.05683 5.37989 6.85425 5.97902 6.85425H9.40611C10.0052 6.85425 10.5075 7.05683 10.9129 7.46201C11.3181 7.86742 11.5207 8.3697 11.5207 8.96883V14.3282C11.5207 14.9273 11.3181 15.4296 10.9129 15.835C10.5075 16.2402 10.0052 16.4428 9.40611 16.4428H5.97902C5.37989 16.4428 4.87774 16.2402 4.47257 15.835C4.06715 15.4296 3.86444 14.9273 3.86444 14.3282ZM15.7499 16.4428C15.1507 16.4428 14.6485 16.2402 14.243 15.835C13.8379 15.4296 13.6353 14.9273 13.6353 14.3282V8.96883C13.6353 8.3697 13.8379 7.86742 14.243 7.46201C14.6485 7.05683 15.1507 6.85425 15.7499 6.85425H19.2499C19.849 6.85425 20.3513 7.05683 20.7567 7.46201C21.1619 7.86742 21.3644 8.3697 21.3644 8.96883V14.3282C21.3644 14.9273 21.1619 15.4296 20.7567 15.835C20.3513 16.2402 19.849 16.4428 19.2499 16.4428H15.7499ZM25.5936 16.4428C24.9945 16.4428 24.4922 16.2402 24.0868 15.835C23.6816 15.4296 23.479 14.9273 23.479 14.3282V8.96883C23.479 8.3697 23.6816 7.86742 24.0868 7.46201C24.4922 7.05683 24.9945 6.85425 25.5936 6.85425H29.0207C29.6198 6.85425 30.1221 7.05683 30.5275 7.46201C30.9327 7.86742 31.1353 8.3697 31.1353 8.96883V14.3282C31.1353 14.9273 30.9327 15.4296 30.5275 15.835C30.1221 16.2402 29.6198 16.4428 29.0207 16.4428H25.5936ZM9.40611 28.1459H5.97902C5.37989 28.1459 4.87774 27.9432 4.47257 27.5378C4.06715 27.1326 3.86444 26.6305 3.86444 26.0313V20.672C3.86444 20.0728 4.06715 19.5706 4.47257 19.1651C4.87774 18.76 5.37989 18.5574 5.97902 18.5574H9.40611C10.0052 18.5574 10.5075 18.76 10.9129 19.1651C11.3181 19.5706 11.5207 20.0728 11.5207 20.672V26.0313C11.5207 26.6305 11.3181 27.1326 10.9129 27.5378C10.5075 27.9432 10.0052 28.1459 9.40611 28.1459ZM15.7499 28.1459C15.1507 28.1459 14.6485 27.9432 14.243 27.5378C13.8379 27.1326 13.6353 26.6305 13.6353 26.0313V20.672C13.6353 20.0728 13.8379 19.5706 14.243 19.1651C14.6485 18.76 15.1507 18.5574 15.7499 18.5574H19.2499C19.849 18.5574 20.3513 18.76 20.7567 19.1651C21.1619 19.5706 21.3644 20.0728 21.3644 20.672V26.0313C21.3644 26.6305 21.1619 27.1326 20.7567 27.5378C20.3513 27.9432 19.849 28.1459 19.2499 28.1459H15.7499ZM25.5936 28.1459C24.9945 28.1459 24.4922 27.9432 24.0868 27.5378C23.6816 27.1326 23.479 26.6305 23.479 26.0313V20.672C23.479 20.0728 23.6816 19.5706 24.0868 19.1651C24.4922 18.76 24.9945 18.5574 25.5936 18.5574H29.0207C29.6198 18.5574 30.1221 18.76 30.5275 19.1651C30.9327 19.5706 31.1353 20.0728 31.1353 20.672V26.0313C31.1353 26.6305 30.9327 27.1326 30.5275 27.5378C30.1221 27.9432 29.6198 28.1459 29.0207 28.1459H25.5936Z" fill="#D9D9D9"/>
</g>
</svg>
