<svg width="23" height="29" viewBox="0 0 23 29" fill="none" xmlns="http://www.w3.org/2000/svg">
<path d="M4 7C4 5.89543 4.89543 5 6 5H21.0947C22.147 5 23 5.85302 23 6.90527V6.90527V27C23 28.1046 22.1046 29 21 29H6C4.89543 29 4 28.1046 4 27V7Z" fill="#7E98DB"/>
<path d="M0 2C0 0.89543 0.895431 0 2 0H15.5633C16.1568 0 16.7197 0.263646 17.0997 0.719631L18.5364 2.44373C18.836 2.80316 19 3.25623 19 3.7241V22C19 23.1046 18.1046 24 17 24H2C0.895431 24 0 23.1046 0 22V2Z" fill="#B7CBFF"/>
<path d="M3 5H14" stroke="white" stroke-linecap="round"/>
<path d="M3 8H11" stroke="white" stroke-linecap="round"/>
</svg>
