<svg width="24" height="20" viewBox="0 0 24 20" fill="none" xmlns="http://www.w3.org/2000/svg">
<mask id="path-1-outside-1_1486_595" maskUnits="userSpaceOnUse" x="0" y="0" width="24" height="20" fill="black">
<rect fill="white" width="24" height="20"/>
<path fill-rule="evenodd" clip-rule="evenodd" d="M3 2H17C17.5523 2 18 2.44772 18 3V13C18 13.5523 17.5523 14 17 14H3C2.44772 14 2 13.5523 2 13V3C2 2.44772 2.44772 2 3 2ZM1 3C1 1.89543 1.89543 1 3 1H17C18.1046 1 19 1.89543 19 3V5H21C22.1046 5 23 5.89543 23 7V17C23 18.1046 22.1046 19 21 19H7C5.89543 19 5 18.1046 5 17V15H3C1.89543 15 1 14.1046 1 13V3ZM6 15V17C6 17.5523 6.44772 18 7 18H21C21.5523 18 22 17.5523 22 17V7C22 6.44772 21.5523 6 21 6H19V13C19 14.1046 18.1046 15 17 15H6Z"/>
</mask>
<path fill-rule="evenodd" clip-rule="evenodd" d="M3 2H17C17.5523 2 18 2.44772 18 3V13C18 13.5523 17.5523 14 17 14H3C2.44772 14 2 13.5523 2 13V3C2 2.44772 2.44772 2 3 2ZM1 3C1 1.89543 1.89543 1 3 1H17C18.1046 1 19 1.89543 19 3V5H21C22.1046 5 23 5.89543 23 7V17C23 18.1046 22.1046 19 21 19H7C5.89543 19 5 18.1046 5 17V15H3C1.89543 15 1 14.1046 1 13V3ZM6 15V17C6 17.5523 6.44772 18 7 18H21C21.5523 18 22 17.5523 22 17V7C22 6.44772 21.5523 6 21 6H19V13C19 14.1046 18.1046 15 17 15H6Z" fill="#9D9D9D"/>
<path d="M19 5H18.7V5.3H19V5ZM5 15H5.3V14.7H5V15ZM6 15V14.7H5.7V15H6ZM19 6V5.7H18.7V6H19ZM17 1.7H3V2.3H17V1.7ZM18.3 3C18.3 2.28203 17.718 1.7 17 1.7V2.3C17.3866 2.3 17.7 2.6134 17.7 3H18.3ZM18.3 13V3H17.7V13H18.3ZM17 14.3C17.718 14.3 18.3 13.718 18.3 13H17.7C17.7 13.3866 17.3866 13.7 17 13.7V14.3ZM3 14.3H17V13.7H3V14.3ZM1.7 13C1.7 13.718 2.28203 14.3 3 14.3V13.7C2.6134 13.7 2.3 13.3866 2.3 13H1.7ZM1.7 3V13H2.3V3H1.7ZM3 1.7C2.28203 1.7 1.7 2.28203 1.7 3H2.3C2.3 2.6134 2.6134 2.3 3 2.3V1.7ZM3 0.7C1.72975 0.7 0.7 1.72974 0.7 3H1.3C1.3 2.06112 2.06112 1.3 3 1.3V0.7ZM17 0.7H3V1.3H17V0.7ZM19.3 3C19.3 1.72975 18.2703 0.7 17 0.7V1.3C17.9389 1.3 18.7 2.06112 18.7 3H19.3ZM19.3 5V3H18.7V5H19.3ZM21 4.7H19V5.3H21V4.7ZM23.3 7C23.3 5.72975 22.2703 4.7 21 4.7V5.3C21.9389 5.3 22.7 6.06112 22.7 7H23.3ZM23.3 17V7H22.7V17H23.3ZM21 19.3C22.2703 19.3 23.3 18.2703 23.3 17H22.7C22.7 17.9389 21.9389 18.7 21 18.7V19.3ZM7 19.3H21V18.7H7V19.3ZM4.7 17C4.7 18.2703 5.72975 19.3 7 19.3V18.7C6.06112 18.7 5.3 17.9389 5.3 17H4.7ZM4.7 15V17H5.3V15H4.7ZM3 15.3H5V14.7H3V15.3ZM0.7 13C0.7 14.2703 1.72974 15.3 3 15.3V14.7C2.06112 14.7 1.3 13.9389 1.3 13H0.7ZM0.7 3V13H1.3V3H0.7ZM6.3 17V15H5.7V17H6.3ZM7 17.7C6.6134 17.7 6.3 17.3866 6.3 17H5.7C5.7 17.718 6.28203 18.3 7 18.3V17.7ZM21 17.7H7V18.3H21V17.7ZM21.7 17C21.7 17.3866 21.3866 17.7 21 17.7V18.3C21.718 18.3 22.3 17.718 22.3 17H21.7ZM21.7 7V17H22.3V7H21.7ZM21 6.3C21.3866 6.3 21.7 6.6134 21.7 7H22.3C22.3 6.28203 21.718 5.7 21 5.7V6.3ZM19 6.3H21V5.7H19V6.3ZM19.3 13V6H18.7V13H19.3ZM17 15.3C18.2703 15.3 19.3 14.2703 19.3 13H18.7C18.7 13.9389 17.9389 14.7 17 14.7V15.3ZM6 15.3H17V14.7H6V15.3Z" fill="#9D9D9D" mask="url(#path-1-outside-1_1486_595)"/>
<path d="M4 5.5H11" stroke="#9D9D9D" stroke-width="1.5" stroke-linecap="round"/>
<path d="M4 8H8" stroke="#9D9D9D" stroke-width="1.5" stroke-linecap="round"/>
</svg>
