<svg width="32" height="32" viewBox="0 0 32 32" fill="none" xmlns="http://www.w3.org/2000/svg">
<mask id="mask0_1038_2803" style="mask-type:alpha" maskUnits="userSpaceOnUse" x="7" y="7" width="18" height="18">
<rect x="7" y="7" width="18" height="18" fill="#D9D9D9"/>
</mask>
<g mask="url(#mask0_1038_2803)">
<path d="M16 23.5C15.0625 23.5 14.1844 23.3219 13.3656 22.9656C12.5469 22.6094 11.8344 22.1281 11.2281 21.5219C10.6219 20.9156 10.1406 20.2031 9.78438 19.3844C9.42813 18.5656 9.25 17.6875 9.25 16.75C9.25 15.8125 9.42813 14.9344 9.78438 14.1156C10.1406 13.2969 10.6219 12.5844 11.2281 11.9781C11.8344 11.3719 12.5469 10.8906 13.3656 10.5344C14.1844 10.1781 15.0625 10 16 10H16.1125L14.95 8.8375L16 7.75L19 10.75L16 13.75L14.95 12.6625L16.1125 11.5H16C14.5375 11.5 13.2969 12.0094 12.2781 13.0281C11.2594 14.0469 10.75 15.2875 10.75 16.75C10.75 18.2125 11.2594 19.4531 12.2781 20.4719C13.2969 21.4906 14.5375 22 16 22C17.4625 22 18.7031 21.4906 19.7219 20.4719C20.7406 19.4531 21.25 18.2125 21.25 16.75H22.75C22.75 17.6875 22.5719 18.5656 22.2156 19.3844C21.8594 20.2031 21.3781 20.9156 20.7719 21.5219C20.1656 22.1281 19.4531 22.6094 18.6344 22.9656C17.8156 23.3219 16.9375 23.5 16 23.5Z" fill="#402FFF"/>
</g>
</svg>
