<svg width="48" height="47" viewBox="0 0 48 47" fill="none" xmlns="http://www.w3.org/2000/svg">
<g clip-path="url(#clip0_701_1811)">
<path d="M0.0274048 15.9862C0.0274048 10.5253 0.0274048 7.7949 1.15327 5.71659C2.10203 3.96522 3.59123 2.53721 5.41766 1.62745C7.58504 0.547852 10.4325 0.547852 16.1274 0.547852H31.9274C37.6223 0.547852 40.4698 0.547852 42.6371 1.62745C44.4636 2.53721 45.9528 3.96522 46.9015 5.71659C48.0274 7.7949 48.0274 10.5253 48.0274 15.9862V31.1369C48.0274 36.5978 48.0274 39.3282 46.9015 41.4065C45.9528 43.1579 44.4636 44.5859 42.6371 45.4957C40.4698 46.5752 37.6223 46.5752 31.9274 46.5752H16.1274C10.4325 46.5752 7.58504 46.5752 5.41766 45.4957C3.59123 44.5859 2.10203 43.1579 1.15327 41.4065C0.0274048 39.3282 0.0274048 36.5978 0.0274048 31.1369V15.9862Z" fill="url(#paint0_radial_701_1811)"/>
<path d="M0.0274048 15.9862C0.0274048 10.5253 0.0274048 7.7949 1.15327 5.71659C2.10203 3.96522 3.59123 2.53721 5.41766 1.62745C7.58504 0.547852 10.4325 0.547852 16.1274 0.547852H31.9274C37.6223 0.547852 40.4698 0.547852 42.6371 1.62745C44.4636 2.53721 45.9528 3.96522 46.9015 5.71659C48.0274 7.7949 48.0274 10.5253 48.0274 15.9862V31.1369C48.0274 36.5978 48.0274 39.3282 46.9015 41.4065C45.9528 43.1579 44.4636 44.5859 42.6371 45.4957C40.4698 46.5752 37.6223 46.5752 31.9274 46.5752H16.1274C10.4325 46.5752 7.58504 46.5752 5.41766 45.4957C3.59123 44.5859 2.10203 43.1579 1.15327 41.4065C0.0274048 39.3282 0.0274048 36.5978 0.0274048 31.1369V15.9862Z" fill="url(#paint1_radial_701_1811)"/>
<path d="M24.0007 6.82422C19.2605 6.82422 18.6656 6.84409 16.8039 6.92534C14.9457 7.00693 13.6774 7.28903 12.5676 7.70292C11.4197 8.13042 10.4459 8.70228 9.47571 9.63294C8.50483 10.5632 7.90849 11.497 7.46123 12.5975C7.02852 13.6621 6.73398 14.8787 6.65035 16.6598C6.56707 18.4451 6.54526 19.0159 6.54526 23.5615C6.54526 28.107 6.56635 28.6757 6.65071 30.461C6.73616 32.2428 7.03033 33.4591 7.46159 34.5233C7.90776 35.6241 8.50411 36.5579 9.47462 37.4882C10.4444 38.4192 11.4182 38.9925 12.5654 39.42C13.676 39.8339 14.9446 40.116 16.8024 40.1976C18.6642 40.2788 19.2587 40.2987 23.9985 40.2987C28.7391 40.2987 29.3322 40.2788 31.194 40.1976C33.0521 40.116 34.3219 39.8339 35.4324 39.42C36.58 38.9925 37.5523 38.4192 38.5221 37.4882C39.493 36.5579 40.0893 35.6241 40.5366 34.5236C40.9657 33.4591 41.2602 32.2425 41.3475 30.4614C41.4311 28.6761 41.4529 28.107 41.4529 23.5615C41.4529 19.0159 41.4311 18.4454 41.3475 16.6601C41.2602 14.8783 40.9657 13.6621 40.5366 12.5979C40.0893 11.497 39.493 10.5632 38.5221 9.63294C37.5512 8.70193 36.5803 8.13007 35.4313 7.70292C34.3186 7.28903 33.0495 7.00693 31.1914 6.92534C29.3297 6.84409 28.7369 6.82422 23.9953 6.82422H24.0007ZM22.435 9.84041C22.8997 9.83971 23.4182 9.84041 24.0007 9.84041C28.6609 9.84041 29.2133 9.85645 31.0536 9.93665C32.7554 10.0113 33.679 10.2839 34.2942 10.513C35.1088 10.8164 35.6895 11.179 36.3 11.7648C36.9109 12.3506 37.2891 12.9086 37.6061 13.6896C37.845 14.2789 38.1298 15.1646 38.2072 16.7965C38.2908 18.5609 38.309 19.0909 38.309 23.5576C38.309 28.0244 38.2908 28.5544 38.2072 30.3188C38.1294 31.9506 37.845 32.8363 37.6061 33.4256C37.2898 34.2067 36.9109 34.7628 36.3 35.3483C35.6891 35.9341 35.1091 36.2967 34.2942 36.6001C33.6797 36.8302 32.7554 37.1022 31.0536 37.1768C29.2137 37.257 28.6609 37.2745 24.0007 37.2745C19.3401 37.2745 18.7878 37.257 16.9479 37.1768C15.2461 37.1015 14.3225 36.8288 13.7069 36.5998C12.8923 36.2964 12.3105 35.9338 11.6996 35.348C11.0888 34.7622 10.7106 34.2056 10.3935 33.4242C10.1546 32.8349 9.86988 31.9492 9.79243 30.3174C9.7088 28.553 9.69207 28.023 9.69207 23.5534C9.69207 19.0839 9.7088 18.5567 9.79243 16.7923C9.87025 15.1604 10.1546 14.2747 10.3935 13.6847C10.7099 12.9037 11.0888 12.3458 11.6996 11.76C12.3105 11.1742 12.8923 10.8115 13.7069 10.5075C14.3221 10.2773 15.2461 10.0053 16.9479 9.93037C18.558 9.86063 19.182 9.83971 22.435 9.83622V9.84041ZM33.3175 12.6195C32.1612 12.6195 31.2231 13.5181 31.2231 14.6273C31.2231 15.7361 32.1612 16.6357 33.3175 16.6357C34.4739 16.6357 35.412 15.7361 35.412 14.6273C35.412 13.5184 34.4739 12.6188 33.3175 12.6188V12.6195ZM24.0007 14.9662C19.0507 14.9662 15.0374 18.8147 15.0374 23.5615C15.0374 28.3082 19.0507 32.155 24.0007 32.155C28.9508 32.155 32.9626 28.3082 32.9626 23.5615C32.9626 18.8147 28.9504 14.9662 24.0004 14.9662H24.0007ZM24.0007 17.9824C27.2137 17.9824 29.8187 20.4801 29.8187 23.5615C29.8187 26.6425 27.2137 29.1405 24.0007 29.1405C20.7874 29.1405 18.1827 26.6425 18.1827 23.5615C18.1827 20.4801 20.7874 17.9824 24.0007 17.9824Z" fill="white"/>
</g>
<defs>
<radialGradient id="paint0_radial_701_1811" cx="0" cy="0" r="1" gradientUnits="userSpaceOnUse" gradientTransform="translate(12.7775 50.1203) rotate(-90) scale(45.6166 44.2453)">
<stop stop-color="#FFDD55"/>
<stop offset="0.1" stop-color="#FFDD55"/>
<stop offset="0.5" stop-color="#FF543E"/>
<stop offset="1" stop-color="#C837AB"/>
</radialGradient>
<radialGradient id="paint1_radial_701_1811" cx="0" cy="0" r="1" gradientUnits="userSpaceOnUse" gradientTransform="translate(-8.01285 3.86359) rotate(78.2088) scale(20.4251 87.5065)">
<stop stop-color="#3771C8"/>
<stop offset="0.128" stop-color="#3771C8"/>
<stop offset="1" stop-color="#6600FF" stop-opacity="0"/>
</radialGradient>
<clipPath id="clip0_701_1811">
<rect width="48" height="46.0274" fill="white" transform="translate(0 0.547852)"/>
</clipPath>
</defs>
</svg>
