<svg width="48" height="50" viewBox="0 0 48 50" fill="none" xmlns="http://www.w3.org/2000/svg">
<rect width="48" height="49.1294" rx="10" fill="#FFE812"/>
<g clip-path="url(#clip0_701_1825)">
<path d="M37.2706 35.7177C37.2706 36.8873 36.3225 37.8354 35.1529 37.8354H12.2824C11.1128 37.8354 10.1647 36.8873 10.1647 35.7177V12.8471C10.1647 11.6776 11.1128 10.7295 12.2824 10.7295H35.1529C36.3225 10.7295 37.2706 11.6776 37.2706 12.8471V35.7177Z" fill="#FFE812"/>
<path d="M23.7176 14.5413C17.636 14.5413 12.7059 18.4285 12.7059 23.2236C12.7059 26.3237 14.767 29.044 17.8674 30.58C17.6988 31.1617 16.7835 34.3223 16.7471 34.5706C16.7471 34.5706 16.7252 34.7572 16.846 34.8283C16.9668 34.8995 17.1089 34.8442 17.1089 34.8442C17.4553 34.7958 21.1264 32.2172 21.7618 31.7694C22.3965 31.8593 23.0502 31.906 23.7176 31.906C29.7993 31.906 34.7294 28.0188 34.7294 23.2236C34.7294 18.4285 29.7993 14.5413 23.7176 14.5413Z" fill="black"/>
<path d="M17.6294 26.2544C17.279 26.2544 16.9941 25.9823 16.9941 25.6477V21.8735H16.0028C15.659 21.8735 15.3794 21.5944 15.3794 21.2515C15.3794 20.9085 15.6591 20.6294 16.0028 20.6294H19.256C19.5998 20.6294 19.8794 20.9085 19.8794 21.2515C19.8794 21.5944 19.5997 21.8735 19.256 21.8735H18.2647V25.6477C18.2647 25.9823 17.9798 26.2544 17.6294 26.2544ZM23.2001 26.2461C22.9352 26.2461 22.7325 26.1386 22.6714 25.9655L22.3568 25.142L20.4196 25.1419L20.1048 25.966C20.0439 26.1387 19.8414 26.2461 19.5765 26.2461C19.4371 26.2463 19.2994 26.2164 19.1726 26.1585C18.9975 26.0777 18.8291 25.8555 19.0221 25.2563L20.5417 21.2565C20.6487 20.9523 20.9739 20.6389 21.3877 20.6295C21.8026 20.6388 22.1278 20.9523 22.2351 21.2572L23.7541 25.2552C23.9474 25.8557 23.779 26.078 23.6039 26.1586C23.4771 26.2164 23.3394 26.2462 23.2001 26.2461C23.2001 26.2461 23.2 26.2461 23.2001 26.2461ZM22.0228 24.0167L21.3882 22.214L20.7537 24.0167H22.0228ZM24.7765 26.1617C24.4407 26.1617 24.1676 25.9004 24.1676 25.5794V21.2647C24.1676 20.9143 24.4586 20.6294 24.8162 20.6294C25.1737 20.6294 25.4647 20.9143 25.4647 21.2647V24.997H26.8147C27.1504 24.997 27.4235 25.2584 27.4235 25.5794C27.4235 25.9004 27.1504 26.1617 26.8147 26.1617H24.7765ZM28.3059 26.2461C27.9556 26.2461 27.6706 25.9612 27.6706 25.6108V21.2647C27.6706 20.9143 27.9556 20.6294 28.3059 20.6294C28.6563 20.6294 28.9412 20.9143 28.9412 21.2647V22.6301L30.7137 20.8577C30.8049 20.7665 30.9301 20.7163 31.0661 20.7163C31.2247 20.7163 31.3839 20.7847 31.5033 20.9039C31.6145 21.0151 31.6809 21.1582 31.69 21.3067C31.6993 21.4565 31.6494 21.5939 31.5499 21.6935L30.1021 23.141L31.6659 25.2127C31.7164 25.2792 31.7532 25.355 31.7741 25.4358C31.795 25.5166 31.7997 25.6008 31.7879 25.6834C31.7766 25.766 31.7489 25.8456 31.7066 25.9176C31.6643 25.9895 31.6081 26.0523 31.5414 26.1023C31.4315 26.1859 31.2972 26.2309 31.1593 26.2306C31.0608 26.231 30.9636 26.2084 30.8755 26.1646C30.7874 26.1207 30.7108 26.0568 30.6518 25.978L29.1619 24.004L28.9414 24.2244V25.6105C28.9412 25.779 28.8742 25.9406 28.7551 26.0597C28.636 26.1789 28.4744 26.2459 28.3059 26.2461Z" fill="#FFE812"/>
</g>
<defs>
<clipPath id="clip0_701_1825">
<rect width="27.1059" height="27.1059" fill="white" transform="translate(10.1647 10.7295)"/>
</clipPath>
</defs>
</svg>
